# Blender 3.4.0
# www.blender.org
mtllib floor.mtl
o Cube
v 2.148593 0.300000 -2.148593
v 2.148593 -0.300000 -2.148593
v 2.148593 0.300000 2.148593
v 2.148593 -0.300000 2.148593
v -2.148593 0.300000 -2.148593
v -2.148593 -0.300000 -2.148593
v -2.148593 0.300000 2.148593
v -2.148593 -0.300000 2.148593
v -2.500000 -0.300000 -2.500000
v -2.500000 -0.300000 2.500000
v 2.500000 -0.300000 -2.500000
v 2.500000 0.300000 2.500000
v -2.500000 0.300000 2.500000
v 2.500000 0.300000 -2.500000
v 2.500000 -0.300000 2.500000
v -2.500000 0.300000 -2.500000
v -2.148593 -0.129974 -2.148593
v -2.148593 -0.129974 2.148593
v 2.148593 -0.129974 -2.148593
v 2.148593 0.129974 2.148593
v -2.148593 0.129974 2.148593
v 2.148593 0.129974 -2.148593
v 2.148593 -0.129974 2.148593
v -2.148593 0.129974 -2.148593
vn -0.0000 -0.0000 1.0000
vn -1.0000 -0.0000 -0.0000
vn 1.0000 -0.0000 -0.0000
vn -0.0000 -0.0000 -1.0000
vn -0.0000 -1.0000 -0.0000
vn -0.0000 1.0000 -0.0000
vt 0.642570 0.517570
vt 0.357430 0.517570
vt 0.642570 0.732430
vt 0.357430 0.732430
vt 0.857430 0.517570
vt 0.142570 0.517570
vt 0.857430 0.732430
vt 0.142570 0.732430
vt 0.375000 0.250000
vt 0.125000 0.500000
vt 0.375000 1.000000
vt 0.375000 0.000000
vt 0.125000 0.750000
vt 0.375000 0.500000
vt 0.625000 0.750000
vt 0.625000 1.000000
vt 0.625000 0.000000
vt 0.875000 0.750000
vt 0.625000 0.500000
vt 0.375000 0.750000
vt 0.625000 0.250000
vt 0.875000 0.500000
vt 0.142570 0.517570
vt 0.142570 0.732430
vt 0.357430 0.517570
vt 0.642570 0.732430
vt 0.857430 0.732430
vt 0.642570 0.517570
vt 0.357430 0.732430
vt 0.857430 0.517570
s 0
usemtl Material
f 6/6/1 2/2/1 19/25/1 17/23/1
f 15/20/1 12/15/1 13/16/1 10/11/1
f 10/12/2 13/17/2 16/21/2 9/9/2
f 3/3/2 1/1/2 22/28/2 20/26/2
f 11/14/3 14/19/3 12/15/3 15/20/3
f 9/9/4 16/21/4 14/19/4 11/14/4
f 6/6/5 8/8/5 10/13/5 9/10/5
f 2/2/5 6/6/5 9/10/5 11/14/5
f 3/3/6 7/7/6 13/18/6 12/15/6
f 1/1/6 3/3/6 12/15/6 14/19/6
f 8/8/5 4/4/5 15/20/5 10/13/5
f 7/7/6 5/5/6 16/22/6 13/18/6
f 5/5/6 1/1/6 14/19/6 16/22/6
f 4/4/5 2/2/5 11/14/5 15/20/5
f 22/28/6 24/30/6 21/27/6 20/26/6
f 17/23/5 19/25/5 23/29/5 18/24/5
f 1/1/1 5/5/1 24/30/1 22/28/1
f 4/4/4 8/8/4 18/24/4 23/29/4
f 7/7/4 3/3/4 20/26/4 21/27/4
f 8/8/3 6/6/3 17/23/3 18/24/3
f 2/2/2 4/4/2 23/29/2 19/25/2
f 5/5/3 7/7/3 21/27/3 24/30/3
