# Blender 3.4.0
# www.blender.org
mtllib wall.mtl
o Plane.001
v 1.000000 -1.000000 0.087972
v 1.000000 1.000000 0.087973
v 1.000000 0.800000 0.087973
v 1.000000 0.800000 0.212973
v 1.000000 1.000000 0.212973
v -1.022374 -0.993180 0.084776
v -0.977626 -1.000000 0.087972
v -0.977626 1.000000 0.087973
v -1.022374 1.006820 0.084776
v -0.977626 0.800000 0.087973
v -1.022374 0.800000 0.087973
v -0.977626 1.000000 0.212973
v -1.022374 1.000000 0.212973
v -0.977626 0.800000 0.212973
v -1.022374 0.800000 0.212973
v -1.022374 -1.004918 0.114581
v -0.977626 -1.011738 0.117779
v -0.977626 0.788262 0.117779
v -1.022374 0.788262 0.117779
v -0.974187 1.082639 0.231280
v -1.025948 1.088579 0.229380
v -0.977626 0.788262 0.242779
v -1.022374 0.788262 0.242779
v -1.011633 -1.024567 0.137445
v -0.988367 -1.022180 0.133609
v -0.988367 0.777820 0.133609
v -1.011633 0.775433 0.137445
v -0.988490 1.086001 0.258864
v -1.011463 1.085112 0.261068
v -0.988367 0.777820 0.258609
v -1.011633 0.775433 0.262445
v -1.007458 -1.007475 0.117139
v -0.992542 -1.007475 0.117139
v -1.003878 -1.027125 0.140002
v -0.996122 -1.027125 0.140002
v -0.996122 0.772876 0.140003
v -1.003878 0.772876 0.140003
v -0.996034 1.082532 0.264376
v -1.003993 1.082025 0.265206
v -0.996122 0.772876 0.265003
v -1.003878 0.772876 0.265003
v -0.983064 0.781076 0.125950
v -0.983064 0.781076 0.250458
v -0.983064 -1.011820 0.125950
v -1.016936 -1.009612 0.126269
v -1.016936 0.779887 0.127861
v -1.016936 0.779887 0.252368
v -1.018166 1.092075 0.251634
v -0.982639 1.090491 0.250765
v -0.994355 1.082247 0.260965
v -1.005645 -1.012159 0.128816
v -0.994355 -1.012159 0.128816
v 1.000000 -1.000000 -0.000000
v 1.000000 1.000000 0.000000
v 1.000000 0.800000 0.000000
v -1.022374 -0.993180 -0.000000
v -0.977626 -1.000000 -0.000000
v -0.977626 1.000000 0.000000
v -1.022374 1.006820 0.000000
v -1.022374 0.800000 0.000000
v 1.000000 -1.000000 -0.087973
v 1.000000 1.000000 -0.087972
v 1.000000 0.800000 -0.087972
v 1.000000 0.800000 -0.212972
v 1.000000 1.000000 -0.212972
v -1.022374 -0.993180 -0.084776
v -0.977626 -1.000000 -0.087973
v -0.977626 1.000000 -0.087972
v -1.022374 1.006820 -0.084776
v -0.977626 0.800000 -0.087972
v -1.022374 0.800000 -0.087972
v -0.977626 1.000000 -0.212972
v -1.022374 1.000000 -0.212972
v -0.977626 0.800000 -0.212972
v -1.022374 0.800000 -0.212972
v -1.022374 -1.004918 -0.114581
v -0.977626 -1.011738 -0.117779
v -0.977626 0.788262 -0.117779
v -1.022374 0.788262 -0.117779
v -0.974187 1.082639 -0.231280
v -1.025948 1.088579 -0.229380
v -0.977626 0.788262 -0.242779
v -1.022374 0.788262 -0.242779
v -1.011633 -1.024567 -0.137445
v -0.988367 -1.022180 -0.133609
v -0.988367 0.777820 -0.133609
v -1.011633 0.775433 -0.137445
v -0.988490 1.086001 -0.258864
v -1.011463 1.085112 -0.261066
v -0.988367 0.777820 -0.258609
v -1.011633 0.775433 -0.262445
v -1.007458 -1.007475 -0.117139
v -0.992542 -1.007475 -0.117139
v -1.003878 -1.027125 -0.140003
v -0.996122 -1.027125 -0.140003
v -0.996122 0.772876 -0.140002
v -1.003878 0.772876 -0.140002
v -0.996034 1.082532 -0.264375
v -1.003993 1.082025 -0.265206
v -0.996122 0.772876 -0.265002
v -1.003878 0.772876 -0.265002
v -0.983064 0.781076 -0.125950
v -0.983064 0.781076 -0.250457
v -0.983064 -1.011820 -0.125950
v -1.016936 -1.009612 -0.126269
v -1.016936 0.779887 -0.127861
v -1.016936 0.779887 -0.252367
v -1.018166 1.092075 -0.251634
v -0.982639 1.090491 -0.250764
v -0.994355 1.082247 -0.260965
v -1.005645 -1.012159 -0.128816
v -0.994355 -1.012159 -0.128816
vn -0.0000 -0.0000 1.0000
vn -0.0000 -1.0000 -0.0000
vn 1.0000 -0.0000 -0.0000
vn 0.9671 -0.2545 -0.0000
vn 0.9982 -0.0083 -0.0591
vn 0.7071 0.7071 0.0003
vn -0.0000 1.0000 -0.0000
vn -0.9980 -0.0088 -0.0625
vn -0.8906 -0.0002 0.4548
vn -0.2454 -0.5337 -0.8093
vn 0.5232 -0.8522 -0.0000
vn -1.0000 -0.0000 -0.0000
vn 0.5376 -0.8432 -0.0000
vn 0.6140 0.0005 0.7893
vn 0.6361 -0.0000 0.7716
vn -0.8516 0.0003 0.5242
vn -0.6432 -0.7657 -0.0000
vn 0.8222 -0.0000 0.5693
vn 0.8179 -0.0009 0.5754
vn 0.8103 -0.0075 0.5860
vn 0.8247 -0.0009 0.5656
vn -0.5528 0.8313 -0.0580
vn -0.3132 -0.0000 0.9497
vn -0.4020 0.0018 0.9156
vn 0.0531 0.0005 0.9986
vn -0.3131 -0.9497 -0.0000
vn 0.0583 -0.5888 -0.8062
vn -0.0000 -0.5987 -0.8010
vn 0.0128 -0.9280 -0.3723
vn -0.0059 -0.9382 -0.3461
vn -0.0000 -0.9281 -0.3723
vn -0.1029 -0.9288 -0.3559
vn -0.1135 -0.9374 -0.3293
vn -0.1158 -0.9337 -0.3388
vn 0.8904 0.0027 0.4552
vn 0.8946 -0.0090 0.4467
vn 0.9014 0.0028 0.4330
vn 0.8325 -0.0000 0.5540
vn -0.8387 -0.5446 -0.0000
vn -0.9235 0.0016 0.3837
vn 0.7974 -0.6034 -0.0000
vn -0.1346 -0.9490 -0.2852
vn -0.2121 -0.9204 -0.3285
vn -0.1656 -0.9435 -0.2871
vn -0.8947 -0.0006 0.4466
vn 0.9785 -0.0000 -0.2060
vn -0.2545 0.9671 -0.0000
vn -0.1507 -0.9886 -0.0000
vn -0.1383 -0.9259 -0.3515
vn -0.1166 -0.9324 -0.3421
vn -0.0720 -0.9195 -0.3863
vn -0.1479 -0.9285 -0.3406
vn -0.1294 -0.9302 -0.3435
vn -0.0000 -0.0000 -1.0000
vn 0.9982 -0.0083 0.0591
vn -0.9980 -0.0088 0.0625
vn -0.8906 -0.0002 -0.4548
vn -0.2454 -0.5337 0.8093
vn 0.6139 0.0005 -0.7893
vn 0.6361 -0.0000 -0.7716
vn -0.8516 0.0003 -0.5242
vn 0.8222 -0.0000 -0.5693
vn 0.8247 -0.0009 -0.5656
vn -0.5528 0.8313 0.0580
vn -0.3132 -0.0000 -0.9497
vn -0.4021 0.0018 -0.9156
vn 0.0528 0.0007 -0.9986
vn 0.0583 -0.5888 0.8062
vn -0.0000 -0.5987 0.8010
vn 0.0059 -0.9316 0.3635
vn -0.0000 -0.9281 0.3723
vn -0.0328 -0.9309 0.3639
vn -0.1029 -0.9288 0.3559
vn -0.1158 -0.9337 0.3388
vn -0.1279 -0.9331 0.3360
vn 0.8904 0.0027 -0.4552
vn 0.8325 -0.0000 -0.5540
vn -0.9235 0.0016 -0.3837
vn -0.1587 -0.9516 0.2631
vn -0.1657 -0.9435 0.2871
vn -0.2121 -0.9204 0.3285
vn -0.8947 -0.0006 -0.4466
vn -0.1383 -0.9259 0.3515
vn -0.1064 -0.9312 0.3487
vn -0.0907 -0.9298 0.3567
vn -0.0720 -0.9195 0.3863
vn -0.1166 -0.9324 0.3421
vn -0.9991 -0.0425 -0.0000
vn 0.9991 -0.0416 -0.0000
vt 1.000000 0.000000
vt 0.000000 0.000000
vt 0.000000 0.000000
vt 1.000000 0.500000
vt 1.000000 0.500000
vt 0.000000 0.000000
vt 1.000000 1.000000
vt 0.000000 0.000000
vt 0.333333 0.000000
vt 0.666667 0.000000
vt 0.000000 0.000000
vt 0.000000 0.000000
vt 0.666667 0.500000
vt 0.333333 0.500000
vt 0.000000 0.000000
vt 0.666667 1.000000
vt 0.333333 1.000000
vt 0.666667 0.500000
vt 0.333333 0.500000
vt 0.333333 0.000000
vt 0.000000 0.000000
vt 0.666667 0.000000
vt 0.000000 0.000000
vt 0.666667 0.500000
vt 0.333333 0.500000
vt 0.666667 1.000000
vt 0.333333 1.000000
vt 0.666667 0.500000
vt 0.333333 0.500000
vt 0.333333 0.000000
vt 0.000000 0.000000
vt 0.000000 0.000000
vt 0.666667 0.000000
vt 0.666667 0.500000
vt 0.333333 0.500000
vt 0.666667 1.000000
vt 0.000000 0.000000
vt 0.333333 1.000000
vt 0.666667 0.500000
vt 0.333333 0.500000
vt 0.000000 0.000000
vt 0.000000 0.000000
vt 0.444444 0.000000
vt 0.000000 0.000000
vt 0.555556 0.000000
vt 0.000000 0.000000
vt 0.555555 0.500000
vt 0.444444 0.500000
vt 0.000000 0.000000
vt 0.555555 1.000000
vt 0.444444 1.000000
vt 0.555555 0.500000
vt 0.444444 0.500000
vt 0.666667 0.500000
vt 0.666667 0.500000
vt 0.666667 0.000000
vt 0.000000 0.000000
vt 0.000000 0.000000
vt 0.333333 0.000000
vt 0.333333 0.500000
vt 0.333333 0.500000
vt 0.333333 1.000000
vt 0.000000 0.000000
vt 0.666667 1.000000
vt 0.000000 0.000000
vt 0.000000 0.000000
vt 0.000000 0.000000
vt 1.000000 0.000000
vt 0.000000 0.000000
vt 0.000000 0.000000
vt 1.000000 0.500000
vt 0.333333 0.000000
vt 0.666667 0.000000
vt 0.000000 0.000000
vt 0.000000 0.000000
vt 0.333333 0.500000
vt 1.000000 0.000000
vt 0.000000 0.000000
vt 0.000000 0.000000
vt 1.000000 0.500000
vt 1.000000 0.500000
vt 0.000000 0.000000
vt 1.000000 1.000000
vt 0.000000 0.000000
vt 0.333333 0.000000
vt 0.666667 0.000000
vt 0.000000 0.000000
vt 0.000000 0.000000
vt 0.666667 0.500000
vt 0.333333 0.500000
vt 0.666667 1.000000
vt 0.000000 0.000000
vt 0.333333 1.000000
vt 0.666667 0.500000
vt 0.333333 0.500000
vt 0.333333 0.000000
vt 0.000000 0.000000
vt 0.666667 0.000000
vt 0.000000 0.000000
vt 0.666667 0.500000
vt 0.333333 0.500000
vt 0.666667 1.000000
vt 0.333333 1.000000
vt 0.666667 0.500000
vt 0.333333 0.500000
vt 0.333333 0.000000
vt 0.000000 0.000000
vt 0.000000 0.000000
vt 0.666667 0.000000
vt 0.666667 0.500000
vt 0.333333 0.500000
vt 0.666667 1.000000
vt 0.000000 0.000000
vt 0.333333 1.000000
vt 0.666667 0.500000
vt 0.333333 0.500000
vt 0.000000 0.000000
vt 0.000000 0.000000
vt 0.444444 0.000000
vt 0.000000 0.000000
vt 0.555556 0.000000
vt 0.000000 0.000000
vt 0.555555 0.500000
vt 0.444444 0.500000
vt 0.000000 0.000000
vt 0.555555 1.000000
vt 0.444444 1.000000
vt 0.555555 0.500000
vt 0.444444 0.500000
vt 0.666667 0.500000
vt 0.666667 0.500000
vt 0.666667 0.000000
vt 0.000000 0.000000
vt 0.000000 0.000000
vt 0.333333 0.000000
vt 0.333333 0.500000
vt 0.333333 0.500000
vt 0.333333 1.000000
vt 0.000000 0.000000
vt 0.666667 1.000000
vt 0.000000 0.000000
vt 0.000000 0.000000
vt 0.000000 0.000000
s 0
usemtl Material.003
f 7/10/1 1/1/1 3/4/1 10/13/1
f 14/18/1 4/5/1 5/7/1 12/16/1
f 10/13/2 3/4/2 4/5/2 14/18/2
f 3/3/3 2/2/4 5/8/3 4/6/3
f 14/18/5 12/16/5 20/26/5 22/28/5
f 2/2/6 8/11/7 12/15/7 5/8/7
f 13/17/8 15/19/8 23/29/8 21/27/8
f 46/60/9 45/59/9 24/30/9 27/35/9
f 52/67/10 44/57/10 25/32/10 35/46/10
f 42/54/11 43/55/11 30/39/11 26/34/11
f 15/19/12 11/14/12 19/25/12 23/29/12
f 11/14/12 6/9/12 16/20/12 19/25/12
f 10/13/3 14/18/3 22/28/3 18/24/3
f 7/10/3 10/13/3 18/24/3 17/22/3
f 36/47/13 26/34/13 30/39/13 40/52/13
f 40/52/14 30/39/14 28/36/14 38/50/14
f 35/45/15 25/33/15 26/34/15 36/47/15
f 48/62/16 47/61/16 31/40/16 29/38/16
f 47/61/17 46/60/17 27/35/17 31/40/17
f 44/56/18 42/54/18 26/34/18 25/33/18
f 43/55/19 49/64/20 28/36/21 30/39/21
f 49/63/22 50/65/22 38/49/22 28/37/22
f 24/30/23 34/43/23 37/48/23 27/35/23
f 34/43/1 35/45/1 36/47/1 37/48/1
f 31/40/24 41/53/24 39/51/24 29/38/24
f 41/53/25 40/52/25 38/50/25 39/51/25
f 27/35/26 37/48/26 41/53/26 31/40/26
f 37/48/2 36/47/2 40/52/2 41/53/2
f 45/58/27 51/66/27 34/44/27 24/31/27
f 51/66/28 52/67/28 35/46/28 34/44/28
f 32/41/29 33/42/30 52/67/31 51/66/31
f 16/21/32 32/41/33 51/66/34 45/58/34
f 22/28/35 20/26/35 49/64/36 43/55/37
f 17/22/38 18/24/38 42/54/38 44/56/38
f 23/29/39 19/25/39 46/60/39 47/61/39
f 21/27/40 23/29/40 47/61/40 48/62/40
f 18/24/41 22/28/41 43/55/41 42/54/41
f 33/42/42 17/23/43 44/57/44 52/67/44
f 19/25/45 16/20/45 45/59/45 46/60/45
f 13/17/12 9/12/12 11/14/12 15/19/12
f 6/9/12 11/14/12 60/76/12 56/72/12
f 2/2/46 3/3/3 55/70/3 54/69/3
f 8/11/7 2/2/47 54/69/7 58/74/7
f 3/4/3 1/1/3 53/68/3 55/71/3
f 1/1/2 7/10/2 57/73/2 53/68/2
f 56/72/48 57/73/48 7/10/48 6/9/48
f 16/21/49 6/9/50 7/10/50 17/23/51 33/42/52 32/41/53
f 9/12/12 59/75/12 60/76/12 11/14/12
f 67/86/54 70/89/54 63/80/54 61/77/54
f 74/94/54 72/91/54 65/83/54 64/81/54
f 70/89/2 74/94/2 64/81/2 63/80/2
f 63/79/3 64/82/3 65/84/3 62/78/3
f 74/94/55 82/104/55 80/102/55 72/91/55
f 62/78/7 65/84/7 72/92/7 68/87/7
f 73/93/56 81/103/56 83/105/56 75/95/56
f 106/136/57 87/111/57 84/106/57 105/135/57
f 112/143/58 95/122/58 85/108/58 104/133/58
f 102/130/11 86/110/11 90/115/11 103/131/11
f 75/95/12 83/105/12 79/101/12 71/90/12
f 71/90/12 79/101/12 76/96/12 66/85/12
f 70/89/3 78/100/3 82/104/3 74/94/3
f 67/86/3 77/98/3 78/100/3 70/89/3
f 96/123/13 100/128/13 90/115/13 86/110/13
f 100/128/59 98/126/59 88/112/59 90/115/59
f 95/121/60 96/123/60 86/110/60 85/109/60
f 108/138/61 89/114/61 91/116/61 107/137/61
f 107/137/17 91/116/17 87/111/17 106/136/17
f 104/132/62 85/109/62 86/110/62 102/130/62
f 103/131/63 90/115/63 88/112/63 109/140/63
f 109/139/64 88/113/64 98/125/64 110/141/64
f 84/106/65 87/111/65 97/124/65 94/119/65
f 94/119/54 97/124/54 96/123/54 95/121/54
f 91/116/66 89/114/66 99/127/66 101/129/66
f 101/129/67 99/127/67 98/126/67 100/128/67
f 87/111/26 91/116/26 101/129/26 97/124/26
f 97/124/2 101/129/2 100/128/2 96/123/2
f 105/134/68 84/107/68 94/120/68 111/142/68
f 111/142/69 94/120/69 95/122/69 112/143/69
f 92/117/70 111/142/71 112/143/71 93/118/72
f 76/97/73 105/134/74 111/142/74 92/117/75
f 82/104/76 103/131/76 109/140/76 80/102/76
f 77/98/77 104/132/77 102/130/77 78/100/77
f 83/105/39 107/137/39 106/136/39 79/101/39
f 81/103/78 108/138/78 107/137/78 83/105/78
f 78/100/41 102/130/41 103/131/41 82/104/41
f 93/118/79 112/143/80 104/133/80 77/99/81
f 79/101/82 106/136/82 105/135/82 76/96/82
f 73/93/12 75/95/12 71/90/12 69/88/12
f 66/85/12 56/72/12 60/76/12 71/90/12
f 62/78/3 54/69/3 55/70/3 63/79/3
f 68/87/7 58/74/7 54/69/7 62/78/7
f 63/80/3 55/71/3 53/68/3 61/77/3
f 61/77/2 53/68/2 57/73/2 67/86/2
f 56/72/48 66/85/48 67/86/48 57/73/48
f 76/97/83 92/117/84 93/118/85 77/99/86 67/86/87 66/85/87
f 69/88/12 71/90/12 60/76/12 59/75/12
f 13/17/88 21/27/88 81/103/88 73/93/88 69/88/88 59/75/88 9/12/88
f 58/74/89 68/87/89 72/92/89 80/102/89 20/26/89 12/16/89 8/11/89
